<?xml version="1.0" standalone="no"?>
<!-- Generator: Adobe Fireworks 10, Export SVG Extension by Aaron Beall (http://fireworks.abeall.com) . Version: 0.6.1  -->
<!DOCTYPE svg PUBLIC "-//W3C//DTD SVG 1.1//EN" "http://www.w3.org/Graphics/SVG/1.1/DTD/svg11.dtd">
<svg id="icns.fw-Page%201%20Copy" viewBox="0 0 16 16" style="background-color:#ffffff00" version="1.1"
	xmlns="http://www.w3.org/2000/svg" xmlns:xlink="http://www.w3.org/1999/xlink" xml:space="preserve"
	x="0px" y="0px" width="16px" height="16px"
>
	<g id="Layer%201">
		<path d="M 1 6 L 15 6 L 15 15 L 1 15 L 1 6 ZM 0 2 L 0 16 L 16 16 L 16 2 L 14 2 L 14 4 L 11 4 L 11 2 L 5 2 L 5 4 L 2 4 L 2 2 L 0 2 ZM 12 0 L 12 3 L 13 3 L 13 0 L 12 0 ZM 3 0 L 3 3 L 4 3 L 4 0 L 3 0 Z" fill="#a5b3bb"/>
	</g>
</svg>