<?xml version="1.0" standalone="no"?>
<!-- Generator: Adobe Fireworks 10, Export SVG Extension by Aaron Beall (http://fireworks.abeall.com) . Version: 0.6.1  -->
<!DOCTYPE svg PUBLIC "-//W3C//DTD SVG 1.1//EN" "http://www.w3.org/Graphics/SVG/1.1/DTD/svg11.dtd">
<svg id="icns.fw-Page%202" viewBox="0 0 16 16" style="background-color:#ffffff00" version="1.1"
	xmlns="http://www.w3.org/2000/svg" xmlns:xlink="http://www.w3.org/1999/xlink" xml:space="preserve"
	x="0px" y="0px" width="16px" height="16px"
>
	<g id="Layer%201">
		<path d="M 7 4 L 7 9 L 12 9 L 12 8 L 8 8 L 8 4 L 7 4 Z" fill="#ffffff"/>
		<path d="M 2 8 C 2 4.6862 4.6862 2 8 2 C 11.3138 2 14 4.6862 14 8 C 14 11.3138 11.3138 14 8 14 C 4.6862 14 2 11.3138 2 8 ZM 0 8 C 0 12.4183 3.5817 16 8 16 C 12.4183 16 16 12.4183 16 8 C 16 3.5817 12.4183 0 8 0 C 3.5817 0 0 3.5817 0 8 Z" fill="#ffffff"/>
	</g>
</svg>