<?xml version="1.0" standalone="no"?>
<!-- Generator: Adobe Fireworks 10, Export SVG Extension by Aaron Beall (http://fireworks.abeall.com) . Version: 0.6.1  -->
<!DOCTYPE svg PUBLIC "-//W3C//DTD SVG 1.1//EN" "http://www.w3.org/Graphics/SVG/1.1/DTD/svg11.dtd">
<svg id="icns.fw-Page%202%20Copy%201" viewBox="0 0 16 16" style="background-color:#ffffff00" version="1.1"
	xmlns="http://www.w3.org/2000/svg" xmlns:xlink="http://www.w3.org/1999/xlink" xml:space="preserve"
	x="0px" y="0px" width="16px" height="16px"
>
	<g id="Layer%201">
		<path d="M 3 7 L 8 7 L 8 8 L 3 8 L 3 7 ZM 3 5 L 13 5 L 13 6 L 3 6 L 3 5 ZM 3 3 L 13 3 L 13 4 L 3 4 L 3 3 ZM 0 2 L 0 9 C 0 10.1046 0.8954 11 2 11 L 4 11 L 4 16 L 9 11 L 14 11 C 15.1046 11 16 10.1046 16 9 L 16 2 C 16 0.8954 15.1046 0 14 0 L 2 0 C 0.8954 0 0 0.8954 0 2 Z" fill="#a5b3bb"/>
	</g>
</svg>