<?xml version="1.0" standalone="no"?>
<!-- Generator: Adobe Fireworks 10, Export SVG Extension by Aaron Beall (http://fireworks.abeall.com) . Version: 0.6.1  -->
<!DOCTYPE svg PUBLIC "-//W3C//DTD SVG 1.1//EN" "http://www.w3.org/Graphics/SVG/1.1/DTD/svg11.dtd">
<svg id="icns.fw-tasks" viewBox="0 0 16 16" style="background-color:#ffffff00" version="1.1"
	xmlns="http://www.w3.org/2000/svg" xmlns:xlink="http://www.w3.org/1999/xlink" xml:space="preserve"
	x="0px" y="0px" width="16px" height="16px"
>
	<g id="Layer%201">
		<path d="M 1 3 L 1 5 L 3 5 L 3 3 L 1 3 ZM 1 11 L 1 13 L 3 13 L 3 11 L 1 11 ZM 1 7 L 1 9 L 3 9 L 3 7 L 1 7 ZM 5 3 L 5 5 L 15 5 L 15 3 L 5 3 ZM 5 11 L 5 13 L 15 13 L 15 11 L 5 11 ZM 5 7 L 5 9 L 15 9 L 15 7 L 5 7 Z" fill="#a5b3bb"/>
	</g>
</svg>