<?xml version="1.0" standalone="no"?>
<!-- Generator: Adobe Fireworks 10, Export SVG Extension by Aaron Beall (http://fireworks.abeall.com) . Version: 0.6.1  -->
<!DOCTYPE svg PUBLIC "-//W3C//DTD SVG 1.1//EN" "http://www.w3.org/Graphics/SVG/1.1/DTD/svg11.dtd">
<svg id="Vev%20logo%202.fw-logo-dark" viewBox="0 0 80 51" style="background-color:#ffffff00" version="1.1"
	xmlns="http://www.w3.org/2000/svg" xmlns:xlink="http://www.w3.org/1999/xlink" xml:space="preserve"
	x="0px" y="0px" width="80px" height="51px"
>
	<defs>
		<linearGradient id="gradient1" x1="102.9887%" y1="0%" x2="102.9887%" y2="100%">
			<stop stop-color="#ddedff" stop-opacity="1" offset="0%"/>
			<stop stop-color="#aac8f9" stop-opacity="1" offset="100%"/>
		</linearGradient>
		<linearGradient id="gradient2" x1="80.3333%" y1="37.0018%" x2="80.3333%" y2="100%">
			<stop stop-color="#ddedff" stop-opacity="1" offset="0%"/>
			<stop stop-color="#aac8f9" stop-opacity="1" offset="100%"/>
		</linearGradient>
	</defs>
	<g id="Layer_1_1">
		<path d="M 34.3125 29.3531 L 42.754 15.0636 C 46.1403 9.0068 42.8596 5 34.0656 5 L 13.7927 5 L 13.7927 8.206 L 28.0506 8.1682 C 32.4695 8.1682 33.8703 9.4185 31.6151 13.1538 L 28.1317 18.9447 L 34.3125 29.3531 Z" fill="url(#gradient1)"/>
		<path d="M 34 46 C 34 46 38.2092 43.6053 40.7383 39.1 L 59.4807 7.6868 C 60.8543 5.4351 73.2676 5.4404 71.8941 7.6868 L 51.3787 42.253 C 49.2343 45.7623 46.323 46 42.3347 46 C 38.9432 46 34 46 34 46 Z" fill="url(#gradient2)"/>
		<path d="M 21.4563 5 L 12.8422 5 C 11.1444 5 9.3891 5.1725 8.5709 6.7068 C 7.9644 7.847 7.8458 9.0907 8.193 10.2994 L 27.3377 42.2727 C 29.4928 45.7636 32.4188 46 36.4271 46 L 44.8036 46 C 44.8036 46 40.5732 43.6179 38.0314 39.1364 C 38.0314 39.1364 21.3175 11.0896 19.6938 8.2778 C 18.0701 5.4659 21.4563 5 21.4563 5 Z" fill="#ddedff"/>
	</g>
</svg>